<svg height="512pt" viewBox="-6 0 512 512.02096" width="512pt" xmlns="http://www.w3.org/2000/svg"><path d="m486.238281 184.921875c-2.070312-.390625-4.050781-.699219-6.074219-1.046875 13.589844-25.15625 20.609376-53.332031 20.414063-81.921875-.011719-.3125-.042969-.628906-.085937-.9375 0 .171875 0 .152344 0 .101563-.167969-4.902344-2.324219-9.523438-5.976563-12.800782-2.152344-1.917968-4.742187-3.28125-7.542969-3.96875.222656-.355468.480469-.679687.683594-1.046875 6.046875-10.621093 6.46875-23.542969 1.125-34.535156-3.722656-8.023437-8.800781-15.339844-15.015625-21.632813l-.078125-.050781-.050781-.085937c-6.273438-6.183594-13.5625-11.246094-21.546875-14.964844-11.011719-5.378906-23.964844-4.976562-34.621094 1.074219-.355469.203125-.679688.460937-1.039062.683593-.671876-2.796874-2.007813-5.390624-3.902344-7.554687-3.289063-3.628906-7.902344-5.78125-12.796875-5.972656-.28125 0-.554688-.058594-.855469-.078125-28.59375-.2265628-56.777344 6.796875-81.917969 20.414062-.34375-2.023437-.648437-3.996094-1.050781-6.066406-.921875-4.753906-3.746094-8.925781-7.816406-11.546875-4.109375-2.6875-9.128906-3.613281-13.925782-2.558594-6.921874 1.570313-59.980468 14-87.800781 35.8125-.910156-1.210937-2.023437-2.253906-3.292969-3.082031-3.582031-2.238281-8.015624-2.644531-11.945312-1.097656l-.984375.382812c-10.300781 3.691406-19.972656 8.949219-28.671875 15.589844-10.902344 8.886719-20.214844 19.5625-27.535156 31.574219-4.355469-1.515625-9.132813-1.273438-13.3125.683593-2.46875 1.367188-4.554688 3.332032-6.066406 5.714844-2.363282-.171875-4.726563.3125-6.828126 1.402344-21.871093 11.28125-39.589843 29.230469-50.585937 51.25-1.683594-.78125-3.480469-1.277344-5.324219-1.476562-6.644531-.640626-13.070312 2.574218-16.539062 8.277343-16.574219 29.59375-26.53125 62.429688-29.183594 96.246094-2.175781 21.460937 2.25 43.070313 12.691406 61.945313-7.058594 3.84375-10.605468 11.984374-8.609375 19.769531 7.9375 31.171875 22.535157 60.257812 42.785157 85.25l-21.019532 21.015625c-5.722656 5.71875-10.867187 11.988281-15.359375 18.714844l-11.945312 17.988281c-7.273438 10.9375-5.847657 25.484375 3.414062 34.800781l2.730469 2.738281c6.472656 6.480469 15.738281 9.328125 24.734375 7.597657 8.996094-1.730469 16.542969-7.8125 20.148437-16.234376l.453126-1.050781c5.285156-12.371093 12.894531-23.613281 22.417968-33.117187l13.40625-13.40625c25.007813 20.300781 54.121094 34.9375 85.332032 42.898437 1.453124.367188 2.945312.554688 4.445312.554688 6.375.007812 12.25-3.449219 15.335938-9.027344 15.648437 8.648437 33.242187 13.171875 51.121093 13.148437 3.644531-.003906 7.285157-.1875 10.90625-.554687 33.796875-2.660156 66.609375-12.625 96.179688-29.199219 5.738281-3.453125 8.976562-9.902344 8.320312-16.566406-.195312-1.84375-.695312-3.640625-1.476562-5.324219 22.039062-11.027343 39.996093-28.777343 51.277343-50.6875 1.070313-2.082031 1.546876-4.421875 1.375-6.757812 2.394532-1.523438 4.367188-3.625 5.742188-6.109375 1.933594-4.167969 2.167969-8.925782.65625-13.261719 12.011719-7.324219 22.6875-16.640625 31.574219-27.546875 6.652343-8.6875 11.917969-18.359375 15.605469-28.660156l.394531-1c1.542969-3.914063 1.136719-8.328125-1.09375-11.894532-.8125-1.28125-1.847657-2.402343-3.054688-3.320312 21.8125-27.835938 34.253907-80.878906 35.839844-87.808594 1.054687-4.796875.132813-9.816406-2.558594-13.925781-2.652343-4.066406-6.851562-6.867187-11.625-7.75zm-24.675781-3.652344c-14.132812-1.472656-28.355469-1.96875-42.554688-1.476562-.574218-4.476563-1.128906-8.984375-1.589843-13.703125-.050781-.511719-.09375-1.058594-.144531-1.578125-.519532-5.5625-.972657-11.289063-1.355469-17.210938 0-.488281-.070313-.949219-.09375-1.433593-.367188-6.050782-.648438-12.324219-.855469-18.773438 0-.957031-.066406-1.894531-.09375-2.859375-.1875-6.335937-.304688-12.878906-.347656-19.625v-1.417969c1.476562 0 2.984375-.101562 4.46875-.128906 12.484375-.210938 25.132812-.554688 37.992187-1.117188h1.398438c8.003906-.265624 16.007812-.664062 24.746093-.921874.160157.132812.28125.300781.351563.496093-.011719.570313.019531 1.140625.085937 1.707031.144532 27.566407-7.480468 54.613282-22.007812 78.042969zm-114.527344 154.292969c1.65625 1.980469 3.414063 3.769531 5.179688 5.613281 1.527344 1.613281 2.988281 3.3125 4.582031 4.824219 1.597656 1.507812 3.414063 2.898438 5.121094 4.332031 1.851562 1.5625 3.636719 3.21875 5.574219 4.652344l.082031.050781c5.707031 4.125 11.789062 7.703125 18.167969 10.683594 1.820312.855469 3.558593 1.84375 5.429687 2.621094 1.867187.777344 3.933594 1.390625 5.894531 2.082031 2.261719.808594 4.445313 1.707031 6.785156 2.398437-2.089843.929688-4.292968 1.585938-6.554687 1.945313l-.339844.066406-.488281.058594c-41.472656 3.160156-83.082031 4.21875-124.664062 3.175781l-.167969-.238281c-1.273438-1.808594-2.5625-3.585937-3.796875-5.46875-.8125-1.238281-1.554688-2.5625-2.339844-3.851563-1.175781-1.910156-2.371094-3.777343-3.5-5.777343-.722656-1.269531-1.390625-2.652344-2.089844-3.957031-1.125-2.109376-2.277344-4.171876-3.351562-6.367188-.769532-1.550781-1.46875-3.214844-2.210938-4.8125-.964844-2.082031-1.945312-4.105469-2.867187-6.273438-.921875-2.164062-1.707031-4.375-2.628907-6.585937-.691406-1.765625-1.425781-3.464844-2.097656-5.289063-1.152344-3.097656-2.246094-6.367187-3.339844-9.636718-.339843-1.039063-.714843-2.019532-1.066406-3.078125-1.140625-3.566407-2.234375-7.304688-3.316406-11.09375-.25-.855469-.523438-1.707031-.769531-2.5625-1.304688-4.6875-2.566407-9.523438-3.789063-14.503907 7.78125 1.414063 15.617188 2.628907 23.457032 3.695313 2.511718.339844 5.011718.597656 7.519531.902344 5.359375.667969 10.71875 1.339843 16.066406 1.886719 2.988281.308593 5.976563.539062 8.945313.808593 4.878906.453125 9.753906.90625 14.589843 1.28125 3.226563.246094 6.394531.460938 9.59375.683594s6.671875.503906 9.957031.707031c.855469 1.929688 1.800782 3.671875 2.6875 5.523438 1.023438 2.164062 2.03125 4.351562 3.125 6.425781 1.371094 2.558594 2.847657 5.03125 4.316407 7.480469 1.160156 1.9375 2.289062 3.917968 3.507812 5.761718 1.535157 2.3125 3.191407 4.460938 4.828125 6.628907 1.324219 1.734375 2.585938 3.550781 3.96875 5.207031zm-103.335937 41.703125c-3.902344-.171875-7.785157-.351563-11.597657-.589844-2.246093-.144531-4.445312-.316406-6.664062-.476562-3.414062-.257813-6.828125-.523438-10.242188-.855469-2.292968-.203125-4.554687-.433594-6.824218-.671875-3.210938-.335937-6.394532-.683594-9.523438-1.066406-2.246094-.273438-4.464844-.566407-6.675781-.855469-3.070313-.421875-6.105469-.867188-9.105469-1.339844-2.140625-.332031-4.265625-.664062-6.371094-1.023437-3.046874-.519531-6.027343-1.082031-8.996093-1.65625-1.929688-.375-3.882813-.734375-5.777344-1.125-3.207031-.675781-6.332031-1.398438-9.445313-2.132813-1.554687-.367187-3.148437-.710937-4.683593-1.085937-3.074219-.765625-6.035157-1.613281-9.011719-2.441407-.855469-2.976562-1.707031-5.972656-2.441406-9.019531-.382813-1.527343-.726563-3.121093-1.085938-4.675781-.730468-3.113281-1.464844-6.238281-2.132812-9.445312-.390625-1.894532-.757813-3.847657-1.125-5.785157-.570313-2.960937-1.144532-5.972656-1.707032-8.984375-.359374-2.101562-.683593-4.269531-1.015624-6.367187-.46875-3.011719-.921876-6.042969-1.339844-9.121094-.300782-2.203125-.585938-4.421875-.851563-6.65625-.386719-3.140625-.734375-6.332031-1.078125-9.542969-.230468-2.25-.460937-4.503906-.671875-6.824218-.308593-3.414063-.574219-6.828126-.855469-10.242188-.160156-2.207031-.339843-4.402344-.476562-6.636719-.238281-3.832031-.417969-7.722656-.597656-11.640625-.085938-1.929687-.195313-3.839844-.265625-5.792968 0-.460938 0-.949219 0-1.410157 1.769531 1.085938 3.636719 2.117188 5.464843 3.160157 1.066407.613281 2.097657 1.246093 3.179688 1.839843 3.679688 2.023438 7.46875 3.988281 11.402344 5.863281l.632812.28125c3.722656 1.769532 7.578125 3.476563 11.5625 5.121094 1.339844.554688 2.746094 1.085938 4.121094 1.621094 2.933594 1.160156 5.921875 2.3125 8.992188 3.414062 1.648437.589844 3.335937 1.167969 5.027343 1.707032 2.984375 1.011718 6.042969 2 9.164063 2.96875 1.765625.554687 3.542968 1.101562 5.351562 1.628906 3.371094.992188 6.824219 1.945312 10.382813 2.886719 1.640625.433593 3.234375.851562 4.898437 1.3125 4.113282 1.042969 8.363282 2.039062 12.683594 3.011719.972656 4.308593 1.96875 8.535156 3.011719 12.65625.425781 1.707031.851562 3.320312 1.328125 4.984374.933594 3.488282 1.871094 6.945313 2.851562 10.289063.546875 1.84375 1.109375 3.652344 1.707032 5.460937.945312 3.042969 1.914062 6.035157 2.910156 8.96875.597656 1.757813 1.203125 3.515626 1.816406 5.230469 1.066406 2.980469 2.175781 5.863281 3.304688 8.714844.570312 1.457031 1.132812 2.953125 1.707031 4.375 1.550781 3.746094 3.160156 7.378906 4.820312 10.90625.195313.417969.375.855469.570313 1.28125 1.859375 3.898437 3.804687 7.679687 5.8125 11.289063.628906 1.160156 1.304687 2.261718 1.953125 3.414062 1.023437 1.78125 2.015625 3.601562 3.074219 5.316406h-1.402344c-1.902344-.042968-3.820313-.152344-5.765625-.238281zm-117.761719-273.433594c0-.113281.042969-.222656.058594-.332031.367187-2.265625 1.023437-4.476562 1.953125-6.574219.769531 2.65625 1.777343 5.121094 2.707031 7.683594.570312 1.578125 1.03125 3.222656 1.707031 4.769531 1.503907 3.585938 3.199219 7.09375 5.078125 10.503906.339844.648438.605469 1.347657.964844 1.980469 2.261719 4.003907 4.773438 7.867188 7.515625 11.5625.855469 1.125 1.828125 2.148438 2.707031 3.25 2.011719 2.507813 4.019532 5.019531 6.253906 7.371094 1.261719 1.332031 2.6875 2.5625 4.019532 3.832031 2.074218 1.988282 4.121094 3.996094 6.375 5.871094 1.558594 1.304688 3.285156 2.511719 4.929687 3.753906 2.253907 1.707032 4.472657 3.414063 6.878907 5.011719 1.835937 1.21875 3.804687 2.335937 5.734374 3.488281 2.449219 1.476563 4.890626 2.953125 7.492188 4.320313 2.082031 1.109375 4.265625 2.125 6.46875 3.15625 1.851562.851562 3.574219 1.84375 5.496094 2.671875.203125 3.207031.46875 6.484375.691406 9.71875s.453125 6.554687.707031 9.882812c.359375 4.65625.800781 9.386719 1.238281 14.070313.28125 3.121093.527344 6.21875.851563 9.386719.53125 5.179687 1.179687 10.375 1.828125 15.582031.324219 2.660156.597656 5.308593.953125 7.96875 1.078125 7.859375 2.289063 15.710937 3.703125 23.542969-5-1.210938-9.835938-2.472657-14.503906-3.78125-.792969-.226563-1.527344-.46875-2.3125-.699219-3.847656-1.097657-7.679688-2.207031-11.28125-3.410157-1.304688-.429687-2.507813-.855468-3.789063-1.316406-3.019531-1.007812-6.050781-2.011718-8.925781-3.078125-1.441406-.539062-2.78125-1.121093-4.191406-1.664062-2.558594-1.007813-5.203125-2.007813-7.679688-3.066407-1.519531-.640624-2.917968-1.339843-4.394531-2.003906-2.242187-1.007812-4.53125-2.003906-6.679687-3.0625-1.484376-.726562-2.859376-1.511718-4.269532-2.261718-2.019531-1.050782-4.085937-2.082032-6.023437-3.175782-1.375-.777344-2.644531-1.605468-3.976563-2.40625-1.894531-1.132812-3.824218-2.242187-5.640625-3.414062-1.195312-.777344-2.304687-1.601563-3.464843-2.398438l-2.3125-1.609375c-1.046876-41.589843.011718-83.203125 3.175781-124.683593zm271.480469-.480469v5.121094c.050781 4.769532.136719 9.386719.261719 13.996094.574218 21.265625 1.9375 40.464844 4.113281 58.027344-27.5 1.191406-55.464844 2.082031-82.292969.757812-1.332031-26.53125-.4375-54.613281.757812-82.296875 25.621094 2.972657 51.394532 4.441407 77.183594 4.394531zm-166.949219 166.980469c-5.375-28.929687-8.917969-58.171875-10.605469-87.550781 27.199219 8.144531 55.273438 13.015625 83.628907 14.507812 1.496093 28.351563 6.367187 56.425782 14.503906 83.625-29.371094-1.667968-58.605469-5.199218-87.527344-10.582031zm72.832031-173.804687c-1.21875 28.066406-2.164062 56.609375-.851562 83.566406-28.574219-1.457031-56.816407-6.796875-83.949219-15.871094l-7.261719-94.933594c29.144531 13.65625 60.179688 22.839844 92.0625 27.238282zm33.28125 185.796875c-9.050781-27.125-14.386719-55.347657-15.863281-83.902344 8.6875.402344 17.460938.640625 26.351562.640625 18.960938 0 38.210938-.777344 57.171876-1.59375 4.40625 31.890625 13.59375 62.933594 27.25 92.089844zm89.363281-254.398438c5.773438-3.304687 12.816407-3.503906 18.773438-.535156 6.246094 2.890625 11.949219 6.835937 16.859375 11.664063l.078125.042968.058594.09375c4.851562 4.929688 8.8125 10.667969 11.699218 16.957032 2.957032 5.9375 2.738282 12.960937-.578124 18.703124-3.09375 5.632813-8.777344 9.367188-15.175782 9.96875-14.351562.65625-28.695312 1.023438-42.929687 1.21875.1875-14.089843.554687-28.347656 1.203125-42.667968.546875-6.496094 4.304687-12.292969 10.011718-15.445313zm-28.308593-10.675781c.460937.066406.921875.09375 1.382812.085938.429688 0 .683594.199218 1.027344 1.007812-.472656 8.082031-.855469 16.085938-1.128906 23.988281-.605469 13.34375-.957031 26.707031-1.167969 39.960938 0 1.339843-.101562 2.671875-.121094 4.011719h-.339844c-25.496093.035156-50.972656-1.472657-76.289062-4.515626.488281-14.195312-.007812-28.40625-1.484375-42.53125 23.4375-14.570312 50.527344-22.199218 78.121094-22.007812zm-99.746094-.175781c.394531-.09375.691406.066406 1.214844.679687 3.90625 20.292969 5.546875 40.957032 4.886719 61.613282-31.253907-3.980469-61.574219-13.378907-89.597657-27.777344 16.074219-14.039063 52.085938-27.46875 83.496094-34.515625zm-125.875 44.371093c6.285156-4.84375 13.226563-8.765624 20.617187-11.648437l8.148438 106.8125-.332031-.144531c-.792969-.402344-1.5-.855469-2.277344-1.253906-3.125-1.648438-6.152344-3.335938-9.011719-5.121094-1.269531-.792969-2.441406-1.636719-3.652344-2.457032-2.242187-1.503906-4.429687-3.046874-6.492187-4.652343-1.246094-.960938-2.433594-1.960938-3.609375-2.960938-1.878906-1.585937-3.679688-3.234375-5.402344-4.914062-1.101562-1.074219-2.203125-2.148438-3.242187-3.257813-1.707031-1.792968-3.226563-3.664062-4.746094-5.546875-.851563-1.09375-1.800781-2.152343-2.621094-3.277343-1.765625-2.414063-3.359375-4.925782-4.886719-7.484376-.410156-.691406-.898437-1.332031-1.289062-2.03125-1.820312-3.28125-3.453125-6.664062-4.890625-10.128906-.484375-1.179687-.851563-2.421875-1.3125-3.617187-.710937-1.902344-1.359375-3.832031-1.964844-5.804688 6.9375-12.386719 16.078125-23.402343 26.964844-32.511719zm-63.503906 45.226563c-2.996094 34.527344-3.292969 71.980469-2.996094 108.492187-17.609375-16.304687-30.40625-37.132812-36.992187-60.210937 7.753906-19.996094 21.785156-36.9375 39.988281-48.28125zm-85.433594 136.757813c2.375-31.308594 11.679687-61.699219 27.238281-88.96875l1.015625 2.558593c0 .101563.101563.1875.136719.296875 8.816406 32.035156 27.929688 60.28125 54.390625 80.378906.074219 4.894532.1875 9.761719.355469 14.503907.0625 1.828125.171875 3.601562.25 5.410156.1875 4.15625.382812 8.296875.640625 12.367187.136719 2.25.316406 4.453126.476562 6.679688.265625 3.566406.539063 7.117188.851563 10.605469.214844 2.296875.4375 4.558593.675781 6.828125.347656 3.367187.722656 6.703125 1.125 10.011718.273437 2.199219.546875 4.394532.855469 6.558594.460937 3.347656.957031 6.632813 1.46875 9.902344.304687 1.988281.605468 3.992188.9375 5.972656.621094 3.652344 1.296875 7.21875 1.996094 10.769532.28125 1.464843.546874 2.960937.855468 4.410156.996094 4.820312 2.046875 9.558594 3.191406 14.183594l-.164062-.050782c-1.40625-.496094-2.757812-1.042968-4.136719-1.554687-3.320312-1.238281-6.589843-2.5-9.738281-3.832031-5.382812-2.242188-10.589844-4.609376-15.566406-7.125l-2.003906-1.050782c-1.988282-1.03125-3.925782-2.105468-5.855469-3.183594-.144531-.09375-.296875-.160156-.449219-.253906-.15625-.09375-.554688-.316406-.804688-.433594-.488281-.261718-.964843-.546874-1.425781-.855468-2.132812-1.246094-4.195312-2.558594-6.246093-3.832032-1.757813-1.074218-3.410157-2.242187-5.160157-3.414062-1.359375-.929688-2.730469-1.839844-4.046875-2.796875-.382812-.273437-.851562-.613281-1.234375-.914063-1.546875-1.144531-3.015625-2.320312-4.492187-3.5-1.109375-.851562-2.234375-1.78125-3.453125-2.796874-1.902344-1.613282-3.773438-3.242188-5.566407-4.914063l-.851562-.855469c-18.886719-18.570312-28.199219-44.785156-25.265625-71.105468zm43.390625 205.652343c-11.042969 11.03125-19.867188 24.078125-25.992188 38.433594l-.453124 1.050781c-1.378907 3.195313-4.246094 5.5-7.660157 6.160156-3.417969.660157-6.9375-.414062-9.40625-2.867187l-2.730469-2.738281c-3.53125-3.550782-4.082031-9.089844-1.3125-13.261719l11.917969-17.988281c3.863281-5.796875 8.285157-11.195313 13.210938-16.121094l19.96875-19.96875c2.304687 2.5625 4.554687 5.121094 6.988281 7.683594.058594.058594.136719.074218.195312.132812.058594.0625.085938.148438.144532.214844 2.476562 2.390625 5.011718 4.601562 7.527344 6.828125zm109.226562 17.066407c2.023438 2.167968 4.191407 4.1875 6.296876 6.160156.46875.320312.597656.957031.289062 1.433594-.28125.503906-.449219.445312-.851562.359374-75.625-20.035156-134.679688-79.113281-154.691407-154.746093-.09375-.363281-.136719-.554688.355469-.851563.535156-.3125 1.21875-.136718 1.539062.394532 1.925782 2.0625 3.933594 4.195312 6.320313 6.457031l1.605469 1.527343c.144531.136719.257812.292969.402344.425782l.570312.496094.613281.589843c1.640625 1.492188 3.289063 2.996094 5.265625 4.640625.605469.511719 1.203125 1 1.800782 1.496094.855468.679688 1.707031 1.347656 2.5625 2.019531l.261718.207031c1.097656.980469 2.253906 1.890626 3.464844 2.722657.929688.691406 1.800781 1.304687 2.707031 1.960937.902344.65625 1.621094 1.195313 2.449219 1.773438 2.558594 1.863281 5.222656 3.652344 7.535156 5.011718 1.542969 1.058594 3.136719 2.035157 4.777344 2.933594 1.222656.875 2.523438 1.632813 3.882812 2.269532 1.519532.914062 2.96875 1.707031 4.265626 2.382812 4.199218 2.273438 8.542968 4.445312 13.03125 6.511719.246093.117187.496093.253906.75.375 1.546874.75 3.089843 1.40625 4.675781 2.082031l1.160156.492188c.777344.34375 1.648437.625 2.433594.957031 2.882812 1.203125 5.84375 2.347656 8.832031 3.472656 2.132812.8125 4.265625 1.628906 6.417969 2.398437 3.507812 1.230469 7.140625 2.371094 10.785156 3.5 1.125 3.632813 2.261719 7.253907 3.480469 10.75.777344 2.21875 1.613281 4.328126 2.425781 6.488282 1.117187 2.949218 2.242187 5.886718 3.414063 8.734375.332031.804687.621093 1.707031.960937 2.46875l.523437 1.21875c.664063 1.5625 1.320313 3.097656 1.996094 4.496093.238282.515626.46875.984376.707032 1.488282l.058593.132812c1.707031 3.652344 3.414063 7.144532 5.121094 10.164063.386719.71875.742187 1.460937 1.128906 2.175781.714844 1.375 1.457031 2.671875 2.019531 3.566406.769532 1.640625 1.671876 3.210938 2.707032 4.695313.75 1.390625 1.578125 2.742187 2.472656 4.042969 1.707031 2.910156 3.566406 5.597656 5.308594 8.007812v.058594c.382812.554687.777344 1.101562 1.160156 1.644531.855469 1.144531 1.621094 2.230469 2.269531 3.066406.84375 1.265625 1.773438 2.472657 2.78125 3.609375l.386719.46875c.851562 1.101563 1.75 2.191406 2.636719 3.257813.398437.488281.792969 1 1.195312 1.476562 1.421875 1.707031 2.925781 3.363281 4.699219 5.292969l.273438.289062c.179687.195313.351562.410157.53125.597657.175781.1875.390624.359375.578124.554687zm81.6875 11.613281c-26.320312 2.941406-52.535156-6.359375-71.113281-25.234375l-.855469-.902344c-1.707031-1.84375-3.414062-3.753906-5.042968-5.710938l-1.742188-2.175781c-1.355468-1.707031-2.695312-3.414062-4-5.117187-.734375-.984375-1.492187-2.042969-2.261718-3.117188-1.355469-1.894531-2.707032-3.804687-4.011719-5.792968-.253907-.394532-.519531-.855469-.785157-1.238282-1.125-1.707031-2.210937-3.558594-3.300781-5.375l-.058593-.09375-.085938-.128906c-.28125-.476562-.582031-.929688-.855469-1.40625-.308593-.480469-.59375-.976562-.851562-1.484375-.121094-.242187-.273438-.523437-.410157-.761719l-.164062-.265625c-.945312-1.707031-1.882812-3.410156-2.796875-5.117187-1.621094-2.945313-3.089844-6.027344-4.566406-9.191406-1.476563-3.167969-2.796875-6.160157-4.128907-9.34375-1.332031-3.183594-2.558593-6.375-3.796874-9.660157-.53125-1.417969-1.085938-2.789062-1.597657-4.265625v-.105468c4.625 1.136718 9.386719 2.195312 14.191407 3.191406 1.398437.292968 2.859374.546875 4.265624.855468 3.59375.707032 7.222657 1.390626 10.925782 2.023438 1.894531.324219 3.828125.605469 5.75.910156 3.335937.523438 6.707031 1.035156 10.128906 1.496094 2.082031.28125 4.199219.546875 6.316406.851562 3.410156.421876 6.851563.808594 10.316406 1.160157 2.140626.222656 4.265626.445312 6.476563.648437 3.652344.332032 7.355469.625 11.09375.898438 2.054687.152344 4.101563.3125 6.195313.449218 4.359374.273438 8.804687.488282 13.277343.683594 1.507813.058594 2.976563.15625 4.496094.207032 4.855469.175781 9.804687.289062 14.78125.367187 20.058594 26.410156 48.242187 45.5 80.210937 54.328125l3.003907 1.65625c-27.402344 15.21875-57.773438 24.332031-89.027344 26.710938zm88.507813-45.441407c-23.074219-6.585937-43.898437-19.382812-60.199219-36.992187 36.519532.292969 73.949219 0 108.492188-2.992187-11.359375 18.1875-28.316406 32.199218-48.316406 39.933593zm93.425781-103.542968c-9.109375 10.886718-20.121094 20.023437-32.503906 26.957031-2.039062-.621094-4.046875-1.289063-5.972656-2.023437-1.101563-.40625-2.238282-.757813-3.3125-1.210938-3.53125-1.449219-6.972656-3.109375-10.308594-4.964844-.410156-.230468-.777344-.511718-1.175781-.742187-2.882813-1.667969-5.675781-3.488281-8.363281-5.453125-1.023438-.75-1.996094-1.597656-2.988282-2.390625-1.996094-1.585938-3.949218-3.226563-5.835937-4.992188-1.058594-.988281-2.082031-2.039062-3.113281-3.089843-1.707032-1.769532-3.390626-3.613282-5.042969-5.535157-.972657-1.152343-1.945313-2.3125-2.886719-3.527343-1.628906-2.097657-3.191406-4.316407-4.726562-6.585938-.792969-1.1875-1.621094-2.339844-2.398438-3.574219-1.816406-2.910156-3.539062-5.976562-5.203125-9.15625-.386719-.734375-.8125-1.390625-1.1875-2.144531-.050781-.101562-.09375-.230469-.152344-.339844l106.808594 8.148438c-2.871094 7.398437-6.792969 14.34375-11.636719 20.625zm9.90625-42.394532c-14.398437-28.023437-23.796875-58.34375-27.777344-89.597656 20.835938-.632812 41.675782 1.128906 62.105469 5.257813.167969.25.226563.558593.15625.851562-7.03125 31.417969-20.5 67.429688-34.484375 83.488281zm0 0"/><path d="m187.648438 322.523438c0 5.257812-4.261719 9.523437-9.519532 9.523437-5.261718 0-9.523437-4.265625-9.523437-9.523437 0-5.257813 4.261719-9.523438 9.523437-9.523438 5.257813 0 9.519532 4.265625 9.519532 9.523438zm0 0"/><path d="m106.855469 403.316406c0 5.261719-4.261719 9.523438-9.523438 9.523438-5.257812 0-9.523437-4.261719-9.523437-9.523438 0-5.257812 4.265625-9.523437 9.523437-9.523437 5.261719 0 9.523438 4.265625 9.523438 9.523437zm0 0"/><path d="m281.910156 228.265625c0 5.257813-4.265625 9.523437-9.523437 9.523437-5.261719 0-9.523438-4.265624-9.523438-9.523437 0-5.261719 4.261719-9.523437 9.523438-9.523437 5.257812 0 9.523437 4.261718 9.523437 9.523437zm0 0"/><path d="m167.453125 194.601562c0 5.257813-4.265625 9.523438-9.523437 9.523438-5.261719 0-9.523438-4.265625-9.523438-9.523438 0-5.261718 4.261719-9.523437 9.523438-9.523437 5.257812 0 9.523437 4.261719 9.523437 9.523437zm0 0"/><path d="m66.460938 255.195312c0 5.257813-4.265626 9.523438-9.523438 9.523438-5.261719 0-9.523438-4.265625-9.523438-9.523438 0-5.257812 4.261719-9.523437 9.523438-9.523437 5.257812 0 9.523438 4.265625 9.523438 9.523437zm0 0"/><path d="m275.175781 127.273438c0 5.257812-4.261719 9.523437-9.523437 9.523437-5.257813 0-9.523438-4.265625-9.523438-9.523437 0-5.261719 4.265625-9.523438 9.523438-9.523438 5.261718 0 9.523437 4.261719 9.523437 9.523438zm0 0"/><path d="m180.917969 86.875c0 5.257812-4.265625 9.523438-9.523438 9.523438-5.257812 0-9.523437-4.265626-9.523437-9.523438s4.265625-9.523438 9.523437-9.523438c5.257813 0 9.523438 4.265626 9.523438 9.523438zm0 0"/><path d="m275.175781 46.476562c0 5.261719-4.261719 9.523438-9.523437 9.523438-5.257813 0-9.523438-4.261719-9.523438-9.523438 0-5.257812 4.265625-9.519531 9.523438-9.519531 5.261718 0 9.523437 4.261719 9.523437 9.519531zm0 0"/><path d="m382.902344 127.273438c0 5.257812-4.265625 9.523437-9.523438 9.523437-5.261718 0-9.523437-4.265625-9.523437-9.523437 0-5.261719 4.261719-9.523438 9.523437-9.523438 5.257813 0 9.523438 4.261719 9.523438 9.523438zm0 0"/><path d="m369.4375 46.476562c0 5.261719-4.265625 9.523438-9.523438 9.523438-5.261718 0-9.523437-4.261719-9.523437-9.523438 0-5.257812 4.261719-9.519531 9.523437-9.519531 5.257813 0 9.523438 4.261719 9.523438 9.519531zm0 0"/><path d="m315.574219 342.722656c0 5.257813-4.265625 9.523438-9.523438 9.523438-5.261719 0-9.523437-4.265625-9.523437-9.523438 0-5.261718 4.261718-9.523437 9.523437-9.523437 5.257813 0 9.523438 4.261719 9.523438 9.523437zm0 0"/><path d="m254.976562 443.714844c0 5.257812-4.261718 9.523437-9.519531 9.523437-5.261719 0-9.523437-4.265625-9.523437-9.523437 0-5.261719 4.261718-9.523438 9.523437-9.523438 5.257813 0 9.519531 4.261719 9.519531 9.523438zm0 0"/><path d="m382.902344 234.996094c0 5.261718-4.265625 9.523437-9.523438 9.523437-5.261718 0-9.523437-4.261719-9.523437-9.523437 0-5.257813 4.261719-9.523438 9.523437-9.523438 5.257813 0 9.523438 4.265625 9.523438 9.523438zm0 0"/><path d="m407.050781 335.988281c2.722657 2.726563 6.820313 3.539063 10.378907 2.066407 3.558593-1.472657 5.878906-4.945313 5.878906-8.796876 0-3.855468-2.320313-7.328124-5.878906-8.800781-3.558594-1.472656-7.65625-.65625-10.378907 2.066407-1.789062 1.785156-2.792969 4.207031-2.792969 6.734374 0 2.523438 1.003907 4.945313 2.792969 6.730469zm0 0"/><path d="m463.703125 234.996094c0 5.261718-4.261719 9.523437-9.523437 9.523437-5.257813 0-9.523438-4.261719-9.523438-9.523437 0-5.257813 4.265625-9.523438 9.523438-9.523438 5.261718 0 9.523437 4.265625 9.523437 9.523438zm0 0"/><path d="m463.703125 140.738281c0 5.257813-4.261719 9.523438-9.523437 9.523438-5.257813 0-9.523438-4.265625-9.523438-9.523438 0-5.261719 4.265625-9.523437 9.523438-9.523437 5.261718 0 9.523437 4.261718 9.523437 9.523437zm0 0"/><path d="m454.179688 59.945312c2.726562-2.726562 3.539062-6.820312 2.066406-10.378906s-4.945313-5.878906-8.796875-5.878906c-3.855469 0-7.328125 2.320312-8.800781 5.878906-1.472657 3.558594-.65625 7.652344 2.066406 10.378906 3.722656 3.710938 9.746094 3.710938 13.464844 0zm0 0"/></svg>